M48
;GenerationSoftware,Autodesk,EAGLE,9.7.0*%
;CreationDate,2024-04-14T22:03:21Z*%
FMAT,2
ICI,OFF
METRIC,TZ,000.000
T5C0.700
T4C0.786
T3C0.830
T2C0.981
T1C1.016
%
G90
M71
T1
X52070Y22860
X52070Y15240
X52070Y11430
X52070Y19050
X52070Y7620
X43180Y23590
X43180Y21050
X43180Y18510
T2
X43372Y10160
X43328Y7620
T3
X22860Y22130
X33020Y22130
T4
X23810Y16240
X23810Y13700
X23810Y11160
X23810Y8620
X32070Y8620
X32070Y11160
X32070Y13700
X32070Y16240
T5
X8350Y21590
X8350Y24130
X8180Y9430
X8180Y6890
M30